<svg xmlns="http://www.w3.org/2000/svg" viewBox="0 0 512 512">
  <rect x="16" y="16" width="480" height="480" rx="104" fill="#000000"/>
  <rect x="108" y="212" width="42" height="145" rx="21" fill="#00D8C9"/>
  <rect x="166" y="155" width="42" height="202" rx="21" fill="#00BDEB"/>
  <rect x="224" y="112" width="42" height="245" rx="21" fill="#087CF0"/>
  <rect x="282" y="167" width="42" height="190" rx="21" fill="#1266E8"/>
  <rect x="340" y="220" width="42" height="137" rx="21" fill="#20D6D0"/>
  <circle cx="267" cy="335" r="89" fill="#050505" stroke="#AAB4C4" stroke-width="5"/>
  <circle cx="267" cy="335" r="70" fill="none" stroke="#E1E5EA" stroke-width="5"/>
  <circle cx="267" cy="335" r="54" fill="#C9D0DA"/>
  <circle cx="267" cy="335" r="12" fill="#000000"/>
  <path d="M329 248v100a26 26 0 1 1-18-25v-91l72-17v90a26 26 0 1 1-18-25v-51z" fill="#F3F5F7"/>
</svg>
